<svg width="152" height="146" viewBox="0 0 152 146" fill="none" xmlns="http://www.w3.org/2000/svg">
<g filter="url(#filter0_d_10_374)">
<rect x="28" y="20" width="96" height="90" rx="14" fill="#1BD15D"/>
</g>
<path d="M62.8961 48.2102C71.6754 48.2102 78.7925 55.3272 78.7925 64.1065C78.7925 72.8859 71.6754 80.0029 62.8961 80.0029C54.1168 80.0029 46.9998 72.8859 46.9998 64.1065C46.9998 55.3272 54.1168 48.2102 62.8961 48.2102ZM62.8962 76.1683C69.547 76.1683 74.9579 70.7575 74.9579 64.1066C74.9579 57.4558 69.547 52.045 62.8962 52.045C56.2454 52.045 50.8345 57.4558 50.8345 64.1066C50.8345 70.7575 56.2453 76.1683 62.8962 76.1683Z" fill="white"/>
<path d="M62.8961 55.2781C67.7641 55.2781 71.7246 59.2385 71.7246 64.1066C71.7246 68.9747 67.7641 72.9352 62.8961 72.9352C58.028 72.9352 54.0675 68.9747 54.0675 64.1066C54.0675 59.2385 58.0279 55.2781 62.8961 55.2781Z" fill="white"/>
<path d="M85.624 61.6103C84.4013 60.8697 83.5841 59.5268 83.5841 57.9929L84.1897 48.0909C84.2129 47.7135 84.5257 47.4192 84.9039 47.4192C85.3129 47.4192 85.6388 47.7618 85.6185 48.1701L85.2246 56.1116C85.2246 56.558 85.5866 56.9198 86.0328 56.9198C86.4792 56.9198 86.8411 56.5578 86.8411 56.1116L87.0378 48.1734C87.0482 47.7539 87.3913 47.4193 87.811 47.4193C88.2307 47.4193 88.5736 47.754 88.5841 48.1734L88.7809 56.1116C88.7809 56.558 89.1429 56.9198 89.5891 56.9198C90.0355 56.9198 90.3974 56.5578 90.3974 56.1116L90.0035 48.1701C89.9833 47.7617 90.3093 47.4192 90.7181 47.4192C91.0963 47.4192 91.4091 47.7135 91.4322 48.0909L92.0381 57.993C92.0381 59.5269 91.221 60.8697 89.9982 61.6104C89.2024 62.0924 88.7588 62.9935 88.8614 63.9183C89.5516 70.1393 90.0204 80.2957 90.0204 81.4021C90.0204 83.0091 89.0312 84.3119 87.8111 84.3119C86.5909 84.3119 85.6018 83.009 85.6018 81.4021C85.6018 80.2957 86.0706 70.1393 86.7608 63.9183C86.8635 62.994 86.4194 62.0921 85.624 61.6103Z" fill="white"/>
<circle cx="2" cy="2" r="2" transform="matrix(-1 0 0 1 103.007 63)" fill="white"/>
<defs>
<filter id="filter0_d_10_374" x="0" y="0" width="152" height="146" filterUnits="userSpaceOnUse" color-interpolation-filters="sRGB">
<feFlood flood-opacity="0" result="BackgroundImageFix"/>
<feColorMatrix in="SourceAlpha" type="matrix" values="0 0 0 0 0 0 0 0 0 0 0 0 0 0 0 0 0 0 127 0" result="hardAlpha"/>
<feOffset dy="8"/>
<feGaussianBlur stdDeviation="14"/>
<feColorMatrix type="matrix" values="0 0 0 0 0.105882 0 0 0 0 0.819608 0 0 0 0 0.364706 0 0 0 0.1 0"/>
<feBlend mode="normal" in2="BackgroundImageFix" result="effect1_dropShadow_10_374"/>
<feBlend mode="normal" in="SourceGraphic" in2="effect1_dropShadow_10_374" result="shape"/>
</filter>
</defs>
</svg>
