<svg width="96" height="90" viewBox="0 0 96 90" fill="none" xmlns="http://www.w3.org/2000/svg">
<rect width="96" height="90" rx="14" />
<path d="M59.1107 28.2102C50.3314 28.2102 43.2144 35.3272 43.2144 44.1065C43.2144 52.8859 50.3314 60.0029 59.1107 60.0029C67.89 60.0029 75.007 52.8859 75.007 44.1065C75.007 35.3272 67.89 28.2102 59.1107 28.2102ZM59.1106 56.1683C52.4598 56.1683 47.0489 50.7575 47.0489 44.1066C47.0489 37.4558 52.4598 32.045 59.1106 32.045C65.7614 32.045 71.1723 37.4558 71.1723 44.1066C71.1723 50.7575 65.7615 56.1683 59.1106 56.1683Z" fill="#9B9B9B"/>
<path d="M59.1108 35.2781C54.2427 35.2781 50.2822 39.2385 50.2822 44.1066C50.2822 48.9747 54.2427 52.9352 59.1108 52.9352C63.9788 52.9352 67.9393 48.9747 67.9393 44.1066C67.9393 39.2385 63.9789 35.2781 59.1108 35.2781Z" fill="#9B9B9B"/>
<path d="M37.3828 41.6103C38.6055 40.8697 39.4228 39.5268 39.4228 37.9929L38.8171 28.0909C38.794 27.7135 38.4811 27.4192 38.1029 27.4192C37.6939 27.4192 37.368 27.7618 37.3884 28.1701L37.7822 36.1116C37.7822 36.558 37.4202 36.9198 36.974 36.9198C36.5277 36.9198 36.1658 36.5578 36.1658 36.1116L35.969 28.1734C35.9586 27.7539 35.6156 27.4193 35.1958 27.4193C34.7761 27.4193 34.4332 27.754 34.4227 28.1734L34.2259 36.1116C34.2259 36.558 33.8639 36.9198 33.4177 36.9198C32.9713 36.9198 32.6095 36.5578 32.6095 36.1116L33.0033 28.1701C33.0236 27.7617 32.6975 27.4192 32.2887 27.4192C31.9106 27.4192 31.5977 27.7135 31.5747 28.0909L30.9688 37.993C30.9688 39.5269 31.7859 40.8697 33.0087 41.6104C33.8044 42.0924 34.248 42.9935 34.1455 43.9183C33.4552 50.1393 32.9864 60.2957 32.9864 61.4021C32.9864 63.0091 33.9756 64.3119 35.1958 64.3119C36.4159 64.3119 37.4051 63.009 37.4051 61.4021C37.4051 60.2957 36.9362 50.1393 36.246 43.9183C36.1434 42.994 36.5875 42.0921 37.3828 41.6103Z" fill="#9B9B9B"/>
<circle cx="22" cy="45" r="2" fill="#9B9B9B"/>
</svg>
