<svg width="20" height="20" viewBox="0 0 20 20" fill="none" xmlns="http://www.w3.org/2000/svg">
<g clip-path="url(#clip0_10_72)">
<path d="M1.6665 9.16658H18.3332V16.6666C18.3332 16.8876 18.2454 17.0996 18.0891 17.2558C17.9328 17.4121 17.7209 17.4999 17.4998 17.4999H2.49984C2.27882 17.4999 2.06686 17.4121 1.91058 17.2558C1.7543 17.0996 1.6665 16.8876 1.6665 16.6666V9.16658ZM14.1665 2.49992H17.4998C17.7209 2.49992 17.9328 2.58772 18.0891 2.744C18.2454 2.90028 18.3332 3.11224 18.3332 3.33325V7.49992H1.6665V3.33325C1.6665 3.11224 1.7543 2.90028 1.91058 2.744C2.06686 2.58772 2.27882 2.49992 2.49984 2.49992H5.83317V0.833252H7.49984V2.49992H12.4998V0.833252H14.1665V2.49992Z" fill="#9B9B9B"/>
</g>
<defs>
<clipPath id="clip0_10_72">
<rect width="20" height="20" fill="white"/>
</clipPath>
</defs>
</svg>
