<svg width="96" height="90" viewBox="0 0 96 90" fill="none" xmlns="http://www.w3.org/2000/svg">
<rect width="96" height="90" rx="14" />
<path d="M60.1107 28.2104C51.3314 28.2104 44.2144 35.3275 44.2144 44.1068C44.2144 52.8861 51.3314 60.0031 60.1107 60.0031C68.89 60.0031 76.007 52.8861 76.007 44.1068C76.007 35.3275 68.89 28.2104 60.1107 28.2104ZM60.1106 56.1686C53.4598 56.1686 48.0489 50.7577 48.0489 44.1069C48.0489 37.4561 53.4598 32.0452 60.1106 32.0452C66.7614 32.0452 72.1723 37.4561 72.1723 44.1069C72.1723 50.7577 66.7615 56.1686 60.1106 56.1686Z" fill="#9B9B9B"/>
<path d="M60.1108 35.2783C55.2427 35.2783 51.2822 39.2388 51.2822 44.1069C51.2822 48.9749 55.2427 52.9354 60.1108 52.9354C64.9788 52.9354 68.9393 48.9749 68.9393 44.1069C68.9393 39.2388 64.9789 35.2783 60.1108 35.2783Z" fill="#9B9B9B"/>
<path d="M27.4141 41.6103C28.6368 40.8697 29.454 39.5268 29.454 37.9929L28.8484 28.0909C28.8252 27.7135 28.5124 27.4192 28.1342 27.4192C27.7252 27.4192 27.3993 27.7618 27.4196 28.1701L27.8135 36.1116C27.8135 36.558 27.4515 36.9198 27.0052 36.9198C26.5589 36.9198 26.197 36.5578 26.197 36.1116L26.0002 28.1734C25.9898 27.7539 25.6468 27.4193 25.2271 27.4193C24.8074 27.4193 24.4644 27.754 24.4539 28.1734L24.2572 36.1116C24.2572 36.558 23.8952 36.9198 23.4489 36.9198C23.0026 36.9198 22.6407 36.5578 22.6407 36.1116L23.0346 28.1701C23.0548 27.7617 22.7287 27.4192 22.32 27.4192C21.9418 27.4192 21.629 27.7135 21.6059 28.0909L21 37.993C21 39.5269 21.8171 40.8697 23.0399 41.6104C23.8357 42.0924 24.2793 42.9935 24.1767 43.9183C23.4864 50.1393 23.0177 60.2957 23.0177 61.4021C23.0177 63.0091 24.0068 64.3119 25.227 64.3119C26.4472 64.3119 27.4363 63.009 27.4363 61.4021C27.4363 60.2957 26.9675 50.1393 26.2773 43.9183C26.1746 42.994 26.6187 42.0921 27.4141 41.6103Z" fill="#9B9B9B"/>
<circle cx="36.4541" cy="45" r="2" fill="#9B9B9B"/>
</svg>
